MulatAbay-Thin.ufo
<glyph name="dollar" format="2">
  <advance width="1121"/>
  <unicode hex="0024"/>
  <note>
uni0024
</note>
  <outline>
    <contour>
      <point x="565" y="-208" type="line"/>
      <point x="620" y="-208" type="line"/>
      <point x="620" y="-20" type="line"/>
      <point x="852" y="-6.667"/>
      <point x="1001" y="134"/>
      <point x="1001" y="346" type="curve" smooth="yes"/>
      <point x="1001" y="598"/>
      <point x="817" y="677"/>
      <point x="575" y="760" type="curve" smooth="yes"/>
      <point x="368" y="831"/>
      <point x="222" y="893"/>
      <point x="222" y="1112" type="curve" smooth="yes"/>
      <point x="222" y="1296"/>
      <point x="363" y="1424"/>
      <point x="579" y="1424" type="curve" smooth="yes"/>
      <point x="801.667" y="1424"/>
      <point x="939" y="1274"/>
      <point x="939" y="1047" type="curve"/>
      <point x="993" y="1047" type="line"/>
      <point x="993" y="1305.667"/>
      <point x="854.333" y="1462.667"/>
      <point x="609" y="1476" type="curve"/>
      <point x="609" y="1663" type="line"/>
      <point x="554" y="1663" type="line"/>
      <point x="554" y="1476" type="line"/>
      <point x="324.667" y="1468"/>
      <point x="168" y="1327.333"/>
      <point x="168" y="1110" type="curve" smooth="yes"/>
      <point x="168" y="867"/>
      <point x="335" y="785"/>
      <point x="553.5" y="709.5" type="curve" smooth="yes"/>
      <point x="765" y="636"/>
      <point x="947" y="568"/>
      <point x="947" y="344" type="curve" smooth="yes"/>
      <point x="947" y="168"/>
      <point x="795.333" y="32"/>
      <point x="586" y="32" type="curve" smooth="yes"/>
      <point x="332.667" y="32"/>
      <point x="175" y="173"/>
      <point x="175" y="409" type="curve"/>
      <point x="121" y="409" type="line"/>
      <point x="121" y="146.333"/>
      <point x="282.333" y="-10.333"/>
      <point x="565" y="-21" type="curve"/>
    </contour>
  </outline>
</glyph>
<glyph name="parenleft" format="2">
  <advance width="607"/>
  <unicode hex="0028"/>
  <note>
uni0028
</note>
  <outline>
    <contour>
      <point x="562" y="-470" type="curve"/>
      <point x="581" y="-427" type="line"/>
      <point x="414" y="-316"/>
      <point x="301" y="-36"/>
      <point x="252" y="162.5" type="curve" smooth="yes"/>
      <point x="218.667" y="298.167"/>
      <point x="202" y="432"/>
      <point x="202" y="616" type="curve" smooth="yes"/>
      <point x="206" y="876"/>
      <point x="280" y="1160.333"/>
      <point x="396" y="1363" type="curve" smooth="yes"/>
      <point x="454" y="1464.333"/>
      <point x="515.667" y="1536.667"/>
      <point x="581" y="1580" type="curve"/>
      <point x="562" y="1623" type="line"/>
      <point x="411" y="1528"/>
      <point x="272" y="1290"/>
      <point x="201" y="1011" type="curve" smooth="yes"/>
      <point x="166" y="872"/>
      <point x="148" y="730"/>
      <point x="148" y="586" type="curve" smooth="yes"/>
      <point x="148" y="259"/>
      <point x="223" y="-27"/>
      <point x="350.5" y="-238.5" type="curve" smooth="yes"/>
      <point x="414.167" y="-344.167"/>
      <point x="484.667" y="-421.333"/>
    </contour>
  </outline>
</glyph>
<glyph name="comma" format="2">
  <advance width="383"/>
  <unicode hex="002C"/>
  <note>
uni002C
</note>
  <outline>
    <contour>
      <point x="129" y="-255" type="line"/>
      <point x="197" y="-182.333"/>
      <point x="232.333" y="-93"/>
      <point x="235" y="13" type="curve" smooth="yes"/>
      <point x="235" y="159" type="line"/>
      <point x="180" y="159" type="line"/>
      <point x="180" y="-8" type="line"/>
      <point x="175.333" y="-82"/>
      <point x="146" y="-153.667"/>
      <point x="92" y="-223" type="curve"/>
    </contour>
  </outline>
</glyph>
<glyph name="C" format="2">
  <advance width="1327"/>
  <unicode hex="0043"/>
  <note>
uni0043
</note>
  <outline>
    <contour>
      <point x="671" y="-20" type="curve" smooth="yes"/>
      <point x="977.667" y="-20"/>
      <point x="1162" y="146"/>
      <point x="1190" y="446" type="curve"/>
      <point x="1136" y="446" type="line"/>
      <point x="1108" y="171.333"/>
      <point x="949.667" y="34"/>
      <point x="671" y="34" type="curve" smooth="yes"/>
      <point x="358" y="34"/>
      <point x="198" y="306"/>
      <point x="198" y="619" type="curve" smooth="yes"/>
      <point x="198" y="833" type="line" smooth="yes"/>
      <point x="198" y="1191.667"/>
      <point x="388.333" y="1422"/>
      <point x="671" y="1422" type="curve" smooth="yes"/>
      <point x="948.333" y="1422"/>
      <point x="1105.333" y="1280"/>
      <point x="1136" y="1012" type="curve"/>
      <point x="1190" y="1012" type="line"/>
      <point x="1162" y="1310.667"/>
      <point x="975" y="1476"/>
      <point x="671" y="1476" type="curve" smooth="yes"/>
      <point x="463" y="1476"/>
      <point x="295.667" y="1364.833"/>
      <point x="209" y="1169.5" type="curve" smooth="yes"/>
      <point x="165.667" y="1071.833"/>
      <point x="144" y="961"/>
      <point x="144" y="837" type="curve" smooth="yes"/>
      <point x="144" y="612" type="line" smooth="yes"/>
      <point x="146" y="267"/>
      <point x="330" y="-20"/>
    </contour>
  </outline>
</glyph>
<glyph name="V" format="2">
  <advance width="1223"/>
  <unicode hex="0056"/>
  <note>
uni0056
</note>
  <outline>
    <contour>
      <point x="579" y="0" type="line"/>
      <point x="645" y="0" type="line"/>
      <point x="1189" y="1456" type="line"/>
      <point x="1130" y="1456" type="line"/>
      <point x="612" y="54" type="line"/>
      <point x="94" y="1456" type="line"/>
      <point x="35" y="1456" type="line"/>
    </contour>
  </outline>
</glyph>
<glyph name="b" format="2">
  <advance width="1121"/>
  <unicode hex="0062"/>
  <note>
uni0062
</note>
  <outline>
    <contour>
      <point x="593" y="-20" type="curve" smooth="yes"/>
      <point x="843.667" y="-20"/>
      <point x="999" y="193.667"/>
      <point x="999" y="531" type="curve" smooth="yes"/>
      <point x="999" y="548" type="line" smooth="yes"/>
      <point x="999" y="898.667"/>
      <point x="844.333" y="1102"/>
      <point x="591" y="1102" type="curve" smooth="yes"/>
      <point x="427" y="1102"/>
      <point x="300" y="1027.667"/>
      <point x="224" y="885" type="curve"/>
      <point x="224" y="1536" type="line"/>
      <point x="170" y="1536" type="line"/>
      <point x="170" y="0" type="line"/>
      <point x="224" y="0" type="line"/>
      <point x="224" y="171" type="line"/>
      <point x="297.333" y="51"/>
      <point x="430.333" y="-20"/>
    </contour>
    <contour>
      <point x="594" y="34" type="curve" smooth="yes"/>
      <point x="410" y="34"/>
      <point x="281.333" y="120.667"/>
      <point x="224" y="274" type="curve"/>
      <point x="224" y="770" type="line"/>
      <point x="281.333" y="954"/>
      <point x="410.667" y="1048"/>
      <point x="592" y="1048" type="curve" smooth="yes"/>
      <point x="813.333" y="1048"/>
      <point x="943" y="862.667"/>
      <point x="943" y="552" type="curve" smooth="yes"/>
      <point x="943" y="216"/>
      <point x="816.667" y="34"/>
    </contour>
  </outline>
</glyph>
<glyph name="e" format="2">
  <advance width="1032"/>
  <unicode hex="0065"/>
  <note>
uni0065
</note>
  <outline>
    <contour>
      <point x="561" y="-20" type="curve" smooth="yes"/>
      <point x="719.667" y="-20"/>
      <point x="839.333" y="38.333"/>
      <point x="920" y="155" type="curve"/>
      <point x="882" y="182" type="line"/>
      <point x="803.333" y="80.667"/>
      <point x="706.333" y="33"/>
      <point x="561" y="33" type="curve" smooth="yes"/>
      <point x="290" y="33"/>
      <point x="141" y="248"/>
      <point x="141" y="577" type="curve"/>
      <point x="952" y="577" type="line"/>
      <point x="952" y="634" type="line" smooth="yes"/>
      <point x="952" y="914"/>
      <point x="782.333" y="1102"/>
      <point x="541" y="1102" type="curve" smooth="yes"/>
      <point x="375.667" y="1102"/>
      <point x="227" y="1003.667"/>
      <point x="147" y="837" type="curve" smooth="yes"/>
      <point x="107" y="753.667"/>
      <point x="87" y="662"/>
      <point x="87" y="562" type="curve" smooth="yes"/>
      <point x="87" y="517" type="line" smooth="yes"/>
      <point x="87" y="226"/>
      <point x="281" y="-20"/>
    </contour>
    <contour>
      <point x="144" y="631" type="line"/>
      <point x="169.333" y="873.667"/>
      <point x="330.333" y="1048"/>
      <point x="541" y="1048" type="curve" smooth="yes"/>
      <point x="766" y="1048"/>
      <point x="898" y="856"/>
      <point x="898" y="631" type="curve"/>
    </contour>
  </outline>
</glyph>
<glyph name="p" format="2">
  <advance width="1121"/>
  <unicode hex="0070"/>
  <note>
uni0070
</note>
  <outline>
    <contour>
      <point x="170" y="-416" type="line"/>
      <point x="224" y="-416" type="line"/>
      <point x="224" y="168" type="line"/>
      <point x="296" y="50.667"/>
      <point x="429" y="-20"/>
      <point x="593" y="-20" type="curve" smooth="yes"/>
      <point x="843.667" y="-20"/>
      <point x="999" y="193.667"/>
      <point x="999" y="531" type="curve" smooth="yes"/>
      <point x="999" y="548" type="line" smooth="yes"/>
      <point x="999" y="898.667"/>
      <point x="844.333" y="1102"/>
      <point x="591" y="1102" type="curve" smooth="yes"/>
      <point x="429.667" y="1102"/>
      <point x="298.667" y="1026.333"/>
      <point x="224" y="889" type="curve"/>
      <point x="224" y="1082" type="line"/>
      <point x="170" y="1082" type="line"/>
    </contour>
    <contour>
      <point x="594" y="34" type="curve" smooth="yes"/>
      <point x="411.333" y="34"/>
      <point x="280" y="119.667"/>
      <point x="224" y="269" type="curve"/>
      <point x="224" y="775" type="line"/>
      <point x="280" y="951"/>
      <point x="410.667" y="1048"/>
      <point x="592" y="1048" type="curve" smooth="yes"/>
      <point x="814.667" y="1048"/>
      <point x="944" y="862.667"/>
      <point x="944" y="552" type="curve" smooth="yes"/>
      <point x="944" y="213.333"/>
      <point x="815.333" y="34"/>
    </contour>
  </outline>
</glyph>
<glyph name="q" format="2">
  <advance width="1121"/>
  <unicode hex="0071"/>
  <note>
uni0071
</note>
  <outline>
    <contour>
      <point x="897" y="-416" type="line"/>
      <point x="951" y="-416" type="line"/>
      <point x="951" y="1082" type="line"/>
      <point x="897" y="1082" type="line"/>
      <point x="897" y="889" type="line"/>
      <point x="822.333" y="1026.333"/>
      <point x="691.333" y="1102"/>
      <point x="530" y="1102" type="curve" smooth="yes"/>
      <point x="276.667" y="1102"/>
      <point x="122" y="897.333"/>
      <point x="122" y="552" type="curve" smooth="yes"/>
      <point x="122" y="191.333"/>
      <point x="277.333" y="-20"/>
      <point x="528" y="-20" type="curve" smooth="yes"/>
      <point x="688" y="-20"/>
      <point x="819.667" y="46.667"/>
      <point x="897" y="168" type="curve"/>
    </contour>
    <contour>
      <point x="527" y="34" type="curve" smooth="yes"/>
      <point x="304.333" y="34"/>
      <point x="178" y="224.333"/>
      <point x="178" y="531" type="curve" smooth="yes"/>
      <point x="178" y="871"/>
      <point x="307.667" y="1048"/>
      <point x="529" y="1048" type="curve" smooth="yes"/>
      <point x="703.667" y="1048"/>
      <point x="834.333" y="955"/>
      <point x="897" y="775" type="curve"/>
      <point x="897" y="268" type="line"/>
      <point x="835.667" y="114.667"/>
      <point x="705.667" y="34"/>
    </contour>
  </outline>
</glyph>
<glyph name="r" format="2">
  <advance width="685"/>
  <unicode hex="0072"/>
  <note>
uni0072
</note>
  <outline>
    <contour>
      <point x="172" y="0" type="line"/>
      <point x="226" y="0" type="line"/>
      <point x="226" y="709" type="line"/>
      <point x="264.667" y="923.667"/>
      <point x="395" y="1049"/>
      <point x="579" y="1049" type="curve"/>
      <point x="649" y="1043" type="line"/>
      <point x="655" y="1091" type="line"/>
      <point x="635.667" y="1098.333"/>
      <point x="610.333" y="1102"/>
      <point x="579" y="1102" type="curve" smooth="yes"/>
      <point x="401.667" y="1102"/>
      <point x="284.667" y="1007.667"/>
      <point x="226" y="857" type="curve"/>
      <point x="226" y="1082" type="line"/>
      <point x="172" y="1082" type="line"/>
    </contour>
  </outline>
</glyph>
<glyph name="v" format="2">
  <advance width="978"/>
  <unicode hex="0076"/>
  <note>
uni0076
</note>
  <outline>
    <contour>
      <point x="463" y="0" type="line"/>
      <point x="516" y="0" type="line"/>
      <point x="937" y="1082" type="line"/>
      <point x="879" y="1082" type="line"/>
      <point x="490" y="86" type="line"/>
      <point x="101" y="1082" type="line"/>
      <point x="43" y="1082" type="line"/>
    </contour>
  </outline>
</glyph>
<glyph name="yen" format="2">
  <advance width="1038"/>
  <unicode hex="00A5"/>
  <note>
uni00A5
</note>
  <outline>
    <contour>
      <point x="489" y="0" type="line"/>
      <point x="543" y="0" type="line"/>
      <point x="543" y="326" type="line"/>
      <point x="935" y="326" type="line"/>
      <point x="935" y="381" type="line"/>
      <point x="543" y="381" type="line"/>
      <point x="543" y="621" type="line"/>
      <point x="935" y="621" type="line"/>
      <point x="935" y="676" type="line"/>
      <point x="568" y="676" type="line"/>
      <point x="1000" y="1456" type="line"/>
      <point x="938" y="1456" type="line"/>
      <point x="512" y="687" type="line"/>
      <point x="95" y="1456" type="line"/>
      <point x="33" y="1456" type="line"/>
      <point x="464" y="676" type="line"/>
      <point x="99" y="676" type="line"/>
      <point x="99" y="621" type="line"/>
      <point x="489" y="621" type="line"/>
      <point x="489" y="381" type="line"/>
      <point x="99" y="381" type="line"/>
      <point x="99" y="326" type="line"/>
      <point x="489" y="326" type="line"/>
    </contour>
  </outline>
</glyph>
<glyph name="section" format="2">
  <advance width="1223"/>
  <unicode hex="00A7"/>
  <outline>
    <contour>
      <point x="600" y="-495" type="curve" smooth="yes"/>
      <point x="876" y="-495"/>
      <point x="1050" y="-362.333"/>
      <point x="1050" y="-149" type="curve" smooth="yes"/>
      <point x="1050" y="0.333"/>
      <point x="979.333" y="92"/>
      <point x="790" y="164" type="curve"/>
      <point x="976.667" y="190.667"/>
      <point x="1094" y="291"/>
      <point x="1094" y="431" type="curve" smooth="yes"/>
      <point x="1094" y="682"/>
      <point x="849" y="729"/>
      <point x="616" y="804" type="curve" smooth="yes"/>
      <point x="557" y="823"/>
      <point x="220" y="913"/>
      <point x="220" y="1132" type="curve" smooth="yes"/>
      <point x="220" y="1313.333"/>
      <point x="372.667" y="1422"/>
      <point x="618" y="1422" type="curve" smooth="yes"/>
      <point x="860.667" y="1422"/>
      <point x="1018" y="1267.667"/>
      <point x="1018" y="1045" type="curve"/>
      <point x="1072" y="1045" type="line"/>
      <point x="1072" y="1319.667"/>
      <point x="904.667" y="1476"/>
      <point x="618" y="1476" type="curve" smooth="yes"/>
      <point x="342" y="1476"/>
      <point x="166" y="1338.333"/>
      <point x="166" y="1129" type="curve" smooth="yes"/>
      <point x="166" y="985"/>
      <point x="258" y="890"/>
      <point x="430" y="822" type="curve"/>
      <point x="254" y="795"/>
      <point x="121" y="696.333"/>
      <point x="121" y="551" type="curve" smooth="yes"/>
      <point x="121" y="361.667"/>
      <point x="358" y="221"/>
      <point x="607" y="166" type="curve" smooth="yes"/>
      <point x="813" y="121"/>
      <point x="995" y="59"/>
      <point x="995" y="-151" type="curve" smooth="yes"/>
      <point x="995" y="-326"/>
      <point x="844" y="-441"/>
      <point x="600" y="-441" type="curve" smooth="yes"/>
      <point x="334.667" y="-441"/>
      <point x="169" y="-302"/>
      <point x="169" y="-62" type="curve"/>
      <point x="115" y="-64" type="line"/>
      <point x="115" y="-338.667"/>
      <point x="298.667" y="-495"/>
    </contour>
    <contour>
      <point x="693" y="196" type="curve"/>
      <point x="517" y="222"/>
      <point x="409" y="278"/>
      <point x="348" y="309" type="curve" smooth="yes"/>
      <point x="222" y="370"/>
      <point x="175" y="429"/>
      <point x="175" y="553" type="curve" smooth="yes"/>
      <point x="175" y="696"/>
      <point x="291.333" y="789.333"/>
      <point x="482" y="796" type="curve"/>
      <point x="745" y="731"/>
      <point x="1050" y="648"/>
      <point x="1040" y="420" type="curve" smooth="yes"/>
      <point x="1034" y="275"/>
      <point x="902.333" y="198.667"/>
    </contour>
  </outline>
</glyph>
<glyph name="periodcentered" format="2">
  <advance width="472"/>
  <unicode hex="00B7"/>
  <note>
uni00B7
</note>
  <outline>
    <contour>
      <point x="234" y="651" type="curve" smooth="yes"/>
      <point x="264.667" y="651"/>
      <point x="290" y="675.333"/>
      <point x="290" y="706" type="curve" smooth="yes"/>
      <point x="290" y="736.667"/>
      <point x="264.667" y="762"/>
      <point x="234" y="762" type="curve" smooth="yes"/>
      <point x="203.333" y="762"/>
      <point x="179" y="736.667"/>
      <point x="179" y="706" type="curve" smooth="yes"/>
      <point x="179" y="675.333"/>
      <point x="203.333" y="651"/>
    </contour>
  </outline>
</glyph>
<glyph name="oslash" format="2">
  <advance width="1127"/>
  <unicode hex="00F8"/>
  <note>
uni00F8
</note>
  <outline>
    <contour>
      <point x="565" y="-20" type="curve" smooth="yes"/>
      <point x="865" y="-20"/>
      <point x="1037" y="226"/>
      <point x="1037" y="568" type="curve" smooth="yes"/>
      <point x="1037" y="868"/>
      <point x="853" y="1102"/>
      <point x="563" y="1102" type="curve" smooth="yes"/>
      <point x="267" y="1102"/>
      <point x="90" y="858"/>
      <point x="90" y="562" type="curve" smooth="yes"/>
      <point x="94" y="140"/>
      <point x="411" y="-20"/>
    </contour>
    <contour>
      <point x="565" y="34" type="curve" smooth="yes"/>
      <point x="386" y="34"/>
      <point x="144" y="228"/>
      <point x="144" y="552" type="curve" smooth="yes"/>
      <point x="144" y="837.333"/>
      <point x="316.333" y="1048"/>
      <point x="563" y="1048" type="curve" smooth="yes"/>
      <point x="824" y="1048"/>
      <point x="983" y="818"/>
      <point x="983" y="562" type="curve" smooth="yes"/>
      <point x="983" y="239"/>
      <point x="812" y="34"/>
    </contour>
    <contour>
      <point x="222" y="-295" type="line"/>
      <point x="281" y="-295" type="line"/>
      <point x="889" y="1286" type="line"/>
      <point x="830" y="1286" type="line"/>
    </contour>
  </outline>
</glyph>
<glyph name="OE" format="2">
  <advance width="1873"/>
  <unicode hex="0152"/>
  <note>
uni0152
</note>
  <outline>
    <contour>
      <point x="631" y="-21" type="curve" smooth="yes"/>
      <point x="718.333" y="-21"/>
      <point x="828.333" y="-14"/>
      <point x="961" y="0" type="curve"/>
      <point x="1801" y="0" type="line"/>
      <point x="1801" y="54" type="line"/>
      <point x="969" y="54" type="line"/>
      <point x="969" y="722" type="line"/>
      <point x="1699" y="722" type="line"/>
      <point x="1699" y="776" type="line"/>
      <point x="969" y="776" type="line"/>
      <point x="969" y="1402" type="line"/>
      <point x="1801" y="1402" type="line"/>
      <point x="1801" y="1456" type="line"/>
      <point x="961" y="1456" type="line"/>
      <point x="834.333" y="1469.333"/>
      <point x="723.667" y="1476"/>
      <point x="629" y="1476" type="curve" smooth="yes"/>
      <point x="146.562" y="1471.778"/>
      <point x="112" y="928"/>
      <point x="112" y="880" type="curve" smooth="yes"/>
      <point x="112" y="565" type="line" smooth="yes"/>
      <point x="112" y="150"/>
      <point x="462" y="-21"/>
    </contour>
    <contour>
      <point x="631" y="33" type="curve" smooth="yes"/>
      <point x="391" y="33"/>
      <point x="166" y="280"/>
      <point x="166" y="576" type="curve" smooth="yes"/>
      <point x="166" y="875" type="line" smooth="yes"/>
      <point x="166" y="1211"/>
      <point x="350.333" y="1422"/>
      <point x="629" y="1422" type="curve" smooth="yes"/>
      <point x="748.333" y="1422"/>
      <point x="843.667" y="1417.667"/>
      <point x="915" y="1409" type="curve"/>
      <point x="915" y="46" type="line"/>
      <point x="844.333" y="37.333"/>
      <point x="749.667" y="33"/>
    </contour>
  </outline>
</glyph>
<glyph name="tilde" format="2">
  <advance width="817"/>
  <unicode hex="02DC"/>
  <note>
uni02DC
</note>
  <outline>
    <contour>
      <point x="90" y="1286" type="curve"/>
      <point x="145" y="1286" type="line"/>
      <point x="145" y="1362"/>
      <point x="191.333" y="1411"/>
      <point x="266" y="1411" type="curve" smooth="yes"/>
      <point x="377" y="1411"/>
      <point x="415" y="1286"/>
      <point x="553" y="1286" type="curve" smooth="yes"/>
      <point x="653" y="1286"/>
      <point x="729" y="1362.667"/>
      <point x="729" y="1472" type="curve"/>
      <point x="674" y="1472" type="line"/>
      <point x="674" y="1393.333"/>
      <point x="625" y="1341"/>
      <point x="553" y="1341" type="curve" smooth="yes"/>
      <point x="447" y="1341"/>
      <point x="400" y="1465"/>
      <point x="266" y="1465" type="curve" smooth="yes"/>
      <point x="164.667" y="1465"/>
      <point x="90" y="1392.667"/>
    </contour>
  </outline>
</glyph>
<glyph name="nine-ethiopic" format="2">
  <advance width="1456"/>
  <unicode hex="1371"/>
  <outline>
    <contour>
      <point x="687" y="-20" type="curve" smooth="yes"/>
      <point x="962" y="-20"/>
      <point x="1121" y="203"/>
      <point x="1121" y="594" type="curve" smooth="yes"/>
      <point x="1121" y="858" type="line" smooth="yes"/>
      <point x="1121" y="1097"/>
      <point x="1061" y="1275"/>
      <point x="952" y="1377" type="curve"/>
      <point x="952" y="1307" type="line"/>
      <point x="1011" y="1236"/>
      <point x="1040.005" y="1153.052"/>
      <point x="1058.571" y="1005" type="curve"/>
      <point x="312.724" y="1005" type="line"/>
      <point x="335.168" y="1183.248"/>
      <point x="390" y="1290"/>
      <point x="443" y="1334" type="curve"/>
      <point x="443" y="1398" type="line"/>
      <point x="319" y="1301"/>
      <point x="250" y="1115"/>
      <point x="250" y="862" type="curve" smooth="yes"/>
      <point x="250" y="598" type="line" smooth="yes"/>
      <point x="250" y="206"/>
      <point x="414" y="-20"/>
    </contour>
    <contour>
      <point x="687" y="34" type="curve" smooth="yes"/>
      <point x="446" y="34"/>
      <point x="301" y="244"/>
      <point x="304" y="596" type="curve" smooth="yes"/>
      <point x="304" y="951" type="line"/>
      <point x="1063.881" y="951" type="line"/>
      <point x="1064" y="601" type="line"/>
      <point x="1067" y="242"/>
      <point x="930" y="34"/>
    </contour>
    <component base="_num.bar" xOffset="125"/>
  </outline>
</glyph>
<glyph name="ninety-ethiopic" format="2">
  <advance width="1423"/>
  <unicode hex="137A"/>
  <outline>
    <contour>
      <point x="963" y="-1" type="line"/>
      <point x="1012" y="-1" type="line"/>
      <point x="762" y="652" type="line"/>
      <point x="1110" y="1422" type="line"/>
      <point x="1110" y="1456" type="line"/>
      <point x="180" y="1456" type="line"/>
      <point x="180" y="1402" type="line"/>
      <point x="1048" y="1402" type="line"/>
      <point x="709" y="652" type="line"/>
    </contour>
    <component base="_num.bar" xOffset="103"/>
  </outline>
</glyph>
<glyph name="quoteright" format="2">
  <advance width="320"/>
  <unicode hex="2019"/>
  <note>
uni2019
</note>
  <outline>
    <contour>
      <point x="114" y="1151" type="line"/>
      <point x="182" y="1223.667"/>
      <point x="217.333" y="1313"/>
      <point x="220" y="1419" type="curve" smooth="yes"/>
      <point x="220" y="1536" type="line"/>
      <point x="165" y="1536" type="line"/>
      <point x="165" y="1398" type="line"/>
      <point x="160.333" y="1324"/>
      <point x="131" y="1252.333"/>
      <point x="77" y="1183" type="curve"/>
    </contour>
  </outline>
</glyph>
<glyph name="hyphenationpoint" format="2">
  <advance width="311"/>
  <unicode hex="2027"/>
  <note>
uni2027
</note>
  <outline>
    <contour>
      <point x="155" y="611" type="curve" smooth="yes"/>
      <point x="185.667" y="611"/>
      <point x="211" y="635.333"/>
      <point x="211" y="666" type="curve" smooth="yes"/>
      <point x="211" y="696.667"/>
      <point x="185.667" y="722"/>
      <point x="155" y="722" type="curve" smooth="yes"/>
      <point x="124.333" y="722"/>
      <point x="100" y="696.667"/>
      <point x="100" y="666" type="curve" smooth="yes"/>
      <point x="100" y="635.333"/>
      <point x="124.333" y="611"/>
    </contour>
  </outline>
</glyph>
<glyph name="partialdiff" format="2">
  <advance width="1172"/>
  <unicode hex="2202"/>
  <note>
uni2202
</note>
  <outline>
    <contour>
      <point x="579" y="-21" type="curve" smooth="yes"/>
      <point x="769.667" y="-21"/>
      <point x="927" y="95.167"/>
      <point x="1011" y="294.5" type="curve" smooth="yes"/>
      <point x="1053" y="394.167"/>
      <point x="1074" y="506"/>
      <point x="1074" y="721" type="curve" smooth="yes"/>
      <point x="1072" y="975"/>
      <point x="1027" y="1173"/>
      <point x="945" y="1310" type="curve" smooth="yes"/>
      <point x="858" y="1454"/>
      <point x="730" y="1530"/>
      <point x="567" y="1530" type="curve" smooth="yes"/>
      <point x="430.333" y="1530"/>
      <point x="319.667" y="1485"/>
      <point x="235" y="1395" type="curve"/>
      <point x="264" y="1354" type="line"/>
      <point x="356" y="1443.333"/>
      <point x="437" y="1476"/>
      <point x="561" y="1476" type="curve" smooth="yes"/>
      <point x="839.667" y="1476"/>
      <point x="999.333" y="1231.667"/>
      <point x="1018" y="785" type="curve"/>
      <point x="916.667" y="941"/>
      <point x="763.667" y="1022"/>
      <point x="581" y="1022" type="curve" smooth="yes"/>
      <point x="137.729" y="1020.99"/>
      <point x="106" y="561"/>
      <point x="106" y="479" type="curve" smooth="yes"/>
      <point x="106" y="287"/>
      <point x="192" y="123.667"/>
      <point x="336" y="41" type="curve" smooth="yes"/>
      <point x="408" y="-0.333"/>
      <point x="489" y="-21"/>
    </contour>
    <contour>
      <point x="579" y="33" type="curve" smooth="yes"/>
      <point x="312" y="33"/>
      <point x="161" y="236"/>
      <point x="161" y="511" type="curve" smooth="yes"/>
      <point x="161" y="781.667"/>
      <point x="335.667" y="968"/>
      <point x="581" y="968" type="curve" smooth="yes"/>
      <point x="808" y="968"/>
      <point x="970" y="831"/>
      <point x="1020" y="679" type="curve"/>
      <point x="1018" y="615" type="line" smooth="yes"/>
      <point x="1000" y="256"/>
      <point x="825" y="33"/>
    </contour>
  </outline>
</glyph>
<glyph name="_num.bar" format="2">
  <advance width="1176"/>
  <outline>
    <contour>
      <point x="0" y="1486" type="line"/>
      <point x="1206" y="1486" type="line"/>
      <point x="1206" y="1540" type="line" name="❌"/>
      <point x="0" y="1540" type="line" name="❌"/>
    </contour>
    <contour>
      <point x="0" y="-114" type="line"/>
      <point x="1206" y="-114" type="line"/>
      <point x="1206" y="-60" type="line"/>
      <point x="0" y="-60" type="line"/>
    </contour>
  </outline>
</glyph>
<glyph name="_smart.cha" format="2">
  <anchor x="-5" y="34" name="_cha"/>
  <outline>
    <contour>
      <point x="-644" y="7"/>
      <point x="-533" y="8"/>
      <point x="-533" y="80" type="curve" smooth="yes"/>
      <point x="-533" y="153"/>
      <point x="-644" y="155"/>
      <point x="-644" y="80" type="curve" smooth="yes"/>
    </contour>
    <contour>
      <point x="588" y="9"/>
      <point x="699" y="10"/>
      <point x="699" y="82" type="curve" smooth="yes"/>
      <point x="699" y="155"/>
      <point x="588" y="157"/>
      <point x="588" y="82" type="curve" smooth="yes"/>
    </contour>
  </outline>
</glyph>
<glyph name="_smart.da.caps" format="2">
  <advance width="1292"/>
  <anchor x="262" y="47" name="_da.caps"/>
  <outline>
    <contour>
      <point x="1023" y="2" type="curve"/>
      <point x="1072" y="0" type="line"/>
      <point x="1076" y="151"/>
      <point x="973" y="342"/>
      <point x="808" y="342" type="curve" smooth="yes"/>
      <point x="210" y="342" type="line"/>
      <point x="210" y="307" type="line"/>
      <point x="728" y="307" type="line" smooth="yes"/>
      <point x="1008" y="307"/>
      <point x="1023" y="97"/>
    </contour>
  </outline>
</glyph>
<glyph name="_smart.eGl" format="2">
  <anchor x="231" y="1360" name="_eGl"/>
  <anchor x="880" y="80" name="_hee"/>
  <anchor x="1062.5" y="673" name="_hu"/>
  <outline>
    <contour>
      <point x="165" y="1341" type="line"/>
      <point x="214" y="1375" type="line"/>
      <point x="221" y="1705" type="line"/>
      <point x="167" y="1667" type="line"/>
    </contour>
  </outline>
</glyph>
<glyph name="_smart.hat.left" format="2">
  <anchor x="5" y="12" name="_hat.left"/>
  <outline>
    <contour>
      <point x="-278" y="109" type="line"/>
      <point x="237" y="109" type="line"/>
      <point x="237" y="153" type="line"/>
      <point x="-278" y="153" type="line"/>
    </contour>
  </outline>
</glyph>
<glyph name="_smart.raa" format="2">
  <anchor x="-537" y="190" name="_raa"/>
  <outline>
    <contour>
      <point x="-574" y="190" type="line"/>
      <point x="-514" y="190" type="line"/>
      <point x="-319" y="456" type="line"/>
      <point x="-385" y="456" type="line"/>
    </contour>
  </outline>
</glyph>
<glyph name="_smart.ri" format="2">
  <anchor x="-101" y="260" name="_ri"/>
  <outline>
    <contour>
      <point x="-16" y="300" type="line"/>
      <point x="-16" y="566" type="line"/>
      <point x="-183" y="566" type="line"/>
      <point x="-183" y="518" type="line"/>
      <point x="-66" y="518" type="line"/>
      <point x="-66" y="300" type="line"/>
    </contour>
  </outline>
</glyph>
<glyph name="_smart.ring" format="2">
  <anchor x="443" y="1025" name="_ring"/>
  <outline>
    <contour>
      <point x="315" y="1062" type="curve" smooth="yes"/>
      <point x="411" y="1062"/>
      <point x="486" y="1136"/>
      <point x="486" y="1232" type="curve" smooth="yes"/>
      <point x="486" y="1328"/>
      <point x="411" y="1406"/>
      <point x="315" y="1406" type="curve" smooth="yes"/>
      <point x="222" y="1406"/>
      <point x="144" y="1332"/>
      <point x="144" y="1232" type="curve" smooth="yes"/>
      <point x="144" y="1132"/>
      <point x="223" y="1062"/>
    </contour>
    <contour>
      <point x="315" y="1116" type="curve" smooth="yes"/>
      <point x="247" y="1116"/>
      <point x="198" y="1163"/>
      <point x="198" y="1232" type="curve" smooth="yes"/>
      <point x="198" y="1304"/>
      <point x="247" y="1352"/>
      <point x="315" y="1352" type="curve" smooth="yes"/>
      <point x="383" y="1352"/>
      <point x="432" y="1304"/>
      <point x="432" y="1232" type="curve" smooth="yes"/>
      <point x="432" y="1163"/>
      <point x="383" y="1116"/>
    </contour>
  </outline>
</glyph>
<glyph name="_smart.yu" format="2">
  <anchor x="149" y="726" name="_yu"/>
  <outline>
    <contour>
      <point x="163" y="721" type="line"/>
      <point x="598" y="721" type="line"/>
      <point x="598" y="775" type="line"/>
      <point x="163" y="775" type="line"/>
    </contour>
  </outline>
</glyph>
<glyph name="hha.base" format="2">
  <advance width="1956"/>
  <anchor x="952" y="7" name="cha"/>
  <anchor x="1718" y="-28" name="haa"/>
  <anchor x="1730" y="663" name="he"/>
  <anchor x="1090" y="-3" name="he.acute.bottom"/>
  <anchor x="858" y="1359" name="he.acute.top"/>
  <anchor x="1569" y="140" name="hee"/>
  <anchor x="1776" y="60" name="hi"/>
  <anchor x="248" y="-10" name="ho"/>
  <anchor x="1770" y="663" name="hu"/>
  <anchor x="1713" y="10" name="hwa"/>
  <anchor x="936" y="1106" name="neck"/>
  <outline>
    <contour>
      <point x="221" y="0" type="line"/>
      <point x="276" y="0" type="line"/>
      <point x="276" y="684" type="line" smooth="yes"/>
      <point x="276" y="875"/>
      <point x="429" y="1049"/>
      <point x="606" y="1049" type="curve" smooth="yes"/>
      <point x="811" y="1049"/>
      <point x="952" y="944"/>
      <point x="952" y="727" type="curve" smooth="yes"/>
      <point x="952" y="0" type="line"/>
      <point x="1006" y="0" type="line"/>
      <point x="1006" y="720" type="line" smooth="yes"/>
      <point x="1006" y="823"/>
      <point x="1132" y="1045"/>
      <point x="1390" y="1049" type="curve" smooth="yes"/>
      <point x="1594" y="1052"/>
      <point x="1686" y="939"/>
      <point x="1686" y="702" type="curve" smooth="yes"/>
      <point x="1686" y="0" type="line"/>
      <point x="1740" y="0" type="line"/>
      <point x="1740" y="706" type="line" smooth="yes"/>
      <point x="1740" y="970"/>
      <point x="1626" y="1102"/>
      <point x="1393" y="1102" type="curve" smooth="yes"/>
      <point x="1214" y="1102"/>
      <point x="1059" y="1002"/>
      <point x="995" y="846" type="curve"/>
      <point x="959" y="1027"/>
      <point x="790" y="1102"/>
      <point x="609" y="1102" type="curve" smooth="yes"/>
      <point x="390" y="1102"/>
      <point x="221" y="920"/>
      <point x="221" y="683" type="curve" smooth="yes"/>
    </contour>
  </outline>
</glyph>
<glyph name="na.base" format="2">
  <advance width="1081"/>
  <anchor x="730" y="71" name="fa"/>
  <anchor x="904" y="-27" name="haa"/>
  <anchor x="603" y="-11" name="haa.acute"/>
  <anchor x="593" y="1278" name="hat"/>
  <anchor x="525" y="941" name="hat.left"/>
  <anchor x="162" y="815" name="he.left"/>
  <anchor x="94" y="568" name="he.left.outer"/>
  <anchor x="917" y="590" name="hee"/>
  <anchor x="829" y="999" name="ho.ring"/>
  <anchor x="903" y="-77" name="hwa"/>
  <outline>
    <contour>
      <point x="602" y="-21" type="curve" smooth="yes"/>
      <point x="804" y="-21"/>
      <point x="801" y="-21"/>
      <point x="931" y="-21" type="curve"/>
      <point x="931" y="32" type="line"/>
      <point x="826" y="32"/>
      <point x="774" y="32"/>
      <point x="582" y="32" type="curve" smooth="yes"/>
      <point x="311" y="32"/>
      <point x="275" y="270"/>
      <point x="275" y="517" type="curve" smooth="yes"/>
      <point x="275" y="1082" type="line"/>
      <point x="220" y="1082" type="line"/>
      <point x="220" y="524" type="line" smooth="yes"/>
      <point x="220" y="187"/>
      <point x="309" y="-19"/>
    </contour>
  </outline>
</glyph>
<glyph name="nye-ethiopic.liga" format="2">
  <advance width="1065"/>
  <anchor x="689.466" y="8.0" name="haa.acute"/>
  <anchor x="277" y="1665" name="hat.caps"/>
  <anchor x="82.961" y="1305.0" name="he.ring.uniq"/>
  <anchor x="663.181" y="11.0" name="hee"/>
  <anchor x="838" y="65" name="hi"/>
  <anchor x="386.701" y="1464.0" name="ho"/>
  <anchor x="434.449" y="1315.0" name="ho.ring"/>
  <anchor x="790.713" y="955.0" name="hu"/>
  <anchor x="352.627" y="1463.0" name="neck.caps"/>
  <anchor x="92" y="1452" name="neck.left.caps"/>
  <anchor x="-16" y="1625" name="nose"/>
  <outline>
    <contour>
      <point x="870" y="-377" type="line"/>
      <point x="914" y="-374" type="line"/>
      <point x="855" y="298" type="line"/>
      <point x="811" y="301" type="line"/>
    </contour>
    <component base="ga.base.cap" xOffset="8"/>
    <component base="_smart.hat.caps" xOffset="358" yOffset="-100"/>
  </outline>
</glyph>
<glyph name="paa-ethiopic.liga" format="2">
  <advance width="1224"/>
  <anchor x="613.985" y="24.046" name="_haa.acute"/>
  <anchor x="749" y="75" name="haa"/>
  <anchor x="618" y="16" name="haa.acute"/>
  <anchor x="594" y="1736" name="hat.caps"/>
  <anchor x="608" y="1531" name="he.acute.top"/>
  <anchor x="705" y="72" name="hee"/>
  <anchor x="670" y="54" name="hi"/>
  <anchor x="819" y="1641" name="ho.ring"/>
  <anchor x="709.159" y="983.0" name="hu"/>
  <anchor x="614" y="-32" name="hwa"/>
  <anchor x="602" y="1532" name="neck.caps"/>
  <outline>
    <contour>
      <point x="270" y="53" type="line"/>
      <point x="305" y="0" type="line"/>
      <point x="635" y="0" type="line"/>
      <point x="596" y="53" type="line"/>
    </contour>
    <component base="pa.base.cap"/>
  </outline>
</glyph>
<glyph name="ra.base" format="2">
  <advance width="1157"/>
  <anchor x="755" y="71" name="fa"/>
  <anchor x="734" y="-53" name="haa"/>
  <anchor x="738" y="-81" name="haa.acute"/>
  <anchor x="505" y="1051" name="hat"/>
  <anchor x="361.562" y="1041" name="hat.left"/>
  <anchor x="1012" y="621" name="hee"/>
  <anchor x="933" y="985" name="ho.ring"/>
  <anchor x="696" y="4" name="hwa"/>
  <anchor x="1000.347" y="305" name="ra"/>
  <anchor x="842" y="305" name="raa"/>
  <anchor x="970" y="254" name="ri"/>
  <outline>
    <contour>
      <point x="627" y="-20" type="curve" smooth="yes"/>
      <point x="829" y="-20"/>
      <point x="1030" y="155"/>
      <point x="1067" y="276" type="curve"/>
      <point x="1006" y="276" type="line"/>
      <point x="987" y="188"/>
      <point x="799" y="34"/>
      <point x="607" y="34" type="curve" smooth="yes"/>
      <point x="336" y="34"/>
      <point x="300" y="270"/>
      <point x="300" y="517" type="curve" smooth="yes"/>
      <point x="300" y="1082" type="line"/>
      <point x="245" y="1082" type="line"/>
      <point x="245" y="524" type="line" smooth="yes"/>
      <point x="245" y="187"/>
      <point x="334" y="-20"/>
    </contour>
  </outline>
</glyph>
<glyph name="six.frac0" format="2">
  <advance width="751"/>
  <note>
glyph00546
</note>
  <outline>
    <contour>
      <point x="387" y="-11" type="curve" smooth="yes"/>
      <point x="535" y="-11"/>
      <point x="643" y="101.667"/>
      <point x="643" y="259" type="curve" smooth="yes"/>
      <point x="643" y="416.333"/>
      <point x="540.333" y="519"/>
      <point x="387" y="519" type="curve" smooth="yes"/>
      <point x="284.333" y="519"/>
      <point x="203.667" y="472.333"/>
      <point x="161" y="411" type="curve"/>
      <point x="171.667" y="621.667"/>
      <point x="304.667" y="747"/>
      <point x="534" y="747" type="curve"/>
      <point x="534" y="797" type="line"/>
      <point x="252.667" y="797"/>
      <point x="107" y="628.667"/>
      <point x="107" y="354" type="curve" smooth="yes"/>
      <point x="107" y="277" type="line" smooth="yes"/>
      <point x="107" y="106.333"/>
      <point x="221.667" y="-11"/>
    </contour>
    <contour>
      <point x="387" y="37" type="curve" smooth="yes"/>
      <point x="253.667" y="37"/>
      <point x="160" y="130"/>
      <point x="160" y="274" type="curve" smooth="yes"/>
      <point x="160" y="334" type="line"/>
      <point x="188" y="415.333"/>
      <point x="284.667" y="470"/>
      <point x="378" y="470" type="curve" smooth="yes"/>
      <point x="510" y="470"/>
      <point x="590" y="386"/>
      <point x="590" y="258" type="curve" smooth="yes"/>
      <point x="590" y="130"/>
      <point x="503" y="37"/>
    </contour>
  </outline>
</glyph>
<glyph name="three.frac0" format="2">
  <advance width="751"/>
  <note>
glyph00543
</note>
  <outline>
    <contour>
      <point x="367" y="-11" type="curve" smooth="yes"/>
      <point x="529.667" y="-11"/>
      <point x="637" y="77.667"/>
      <point x="637" y="211" type="curve" smooth="yes"/>
      <point x="637" y="307"/>
      <point x="577.667" y="376.333"/>
      <point x="463" y="403" type="curve"/>
      <point x="563" y="433.667"/>
      <point x="618" y="506"/>
      <point x="618" y="582" type="curve" smooth="yes"/>
      <point x="618" y="718"/>
      <point x="520.667" y="800"/>
      <point x="362" y="800" type="curve" smooth="yes"/>
      <point x="210" y="800"/>
      <point x="97" y="710"/>
      <point x="97" y="582" type="curve"/>
      <point x="150" y="582" type="line"/>
      <point x="150" y="683.333"/>
      <point x="240.667" y="751"/>
      <point x="362" y="751" type="curve" smooth="yes"/>
      <point x="488.667" y="751"/>
      <point x="564" y="687.667"/>
      <point x="564" y="585" type="curve" smooth="yes"/>
      <point x="564" y="493"/>
      <point x="479.667" y="427.333"/>
      <point x="345" y="426" type="curve" smooth="yes"/>
      <point x="270" y="426" type="line"/>
      <point x="270" y="377" type="line"/>
      <point x="330" y="377" type="line" smooth="yes"/>
      <point x="498.667" y="377"/>
      <point x="583" y="321.333"/>
      <point x="583" y="210" type="curve" smooth="yes"/>
      <point x="583" y="102"/>
      <point x="504.333" y="37"/>
      <point x="367" y="37" type="curve" smooth="yes"/>
      <point x="229.667" y="37"/>
      <point x="134" y="113"/>
      <point x="134" y="217" type="curve"/>
      <point x="80" y="217" type="line"/>
      <point x="80" y="82.333"/>
      <point x="201.667" y="-11"/>
    </contour>
  </outline>
</glyph>
<glyph name="ya.base.cap" format="2">
  <advance width="1230"/>
  <anchor x="271.324" y="10" name="da.caps"/>
  <anchor x="1051" y="14" name="haa"/>
  <anchor x="620" y="1682" name="hat.caps"/>
  <anchor x="1287" y="1009" name="he"/>
  <anchor x="220" y="1526" name="he.left.outer"/>
  <anchor x="933" y="102" name="hee"/>
  <anchor x="1124" y="15" name="hi"/>
  <anchor x="226" y="-25" name="ho"/>
  <anchor x="975" y="339" name="hu"/>
  <anchor x="1057" y="-2" name="hwa"/>
  <anchor x="610.24" y="1480" name="neck.caps"/>
  <outline>
    <contour>
      <point x="200" y="0" type="line"/>
      <point x="254" y="0" type="line"/>
      <point x="254" y="615" type="line"/>
      <point x="662" y="615" type="line" smooth="yes"/>
      <point x="958" y="615"/>
      <point x="1125" y="767"/>
      <point x="1125" y="1031" type="curve" smooth="yes"/>
      <point x="1125" y="1298"/>
      <point x="952" y="1456"/>
      <point x="655" y="1456" type="curve" smooth="yes"/>
      <point x="200" y="1456" type="line"/>
    </contour>
    <contour>
      <point x="254" y="669" type="line"/>
      <point x="254" y="1402" type="line"/>
      <point x="655" y="1402" type="line" smooth="yes"/>
      <point x="918" y="1402"/>
      <point x="1071" y="1264"/>
      <point x="1071" y="1029" type="curve" smooth="yes"/>
      <point x="1071" y="802"/>
      <point x="918" y="669"/>
      <point x="655" y="669" type="curve" smooth="yes"/>
    </contour>
  </outline>
</glyph>
<glyph name="ya.base" format="2">
  <advance width="1132"/>
  <anchor x="215" y="54" name="da"/>
  <anchor x="891" y="-69" name="di"/>
  <anchor x="793" y="164" name="du"/>
  <anchor x="876" y="-10" name="haa"/>
  <anchor x="481" y="-65" name="haa.acute"/>
  <anchor x="660" y="1341" name="hat"/>
  <anchor x="1182" y="756" name="he"/>
  <anchor x="314" y="970" name="he.left.outer"/>
  <anchor x="934" y="12" name="hee"/>
  <anchor x="1029" y="11" name="hha"/>
  <anchor x="925" y="-300" name="hi"/>
  <anchor x="180" y="-11" name="ho"/>
  <anchor x="881" y="159" name="hu"/>
  <anchor x="873" y="0" name="hwa"/>
  <anchor x="693" y="1112" name="neck"/>
  <anchor x="509" y="24" name="ye"/>
  <anchor x="410" y="280" name="yee"/>
  <anchor x="239.848" y="381" name="yi"/>
  <anchor x="410" y="335" name="yu"/>
  <outline>
    <contour>
      <point x="365" y="0" type="line"/>
      <point x="419" y="0" type="line"/>
      <point x="279" y="577" type="line"/>
      <point x="1017" y="577" type="line" smooth="yes"/>
      <point x="1056" y="577"/>
      <point x="1052" y="595"/>
      <point x="1052" y="634" type="curve" smooth="yes"/>
      <point x="1052" y="914"/>
      <point x="922" y="1102"/>
      <point x="681" y="1102" type="curve" smooth="yes"/>
      <point x="516" y="1102"/>
      <point x="367" y="1004"/>
      <point x="287" y="837" type="curve" smooth="yes"/>
      <point x="254" y="768"/>
      <point x="217" y="663"/>
      <point x="235" y="582" type="curve" smooth="yes"/>
    </contour>
    <contour>
      <point x="284" y="631" type="line"/>
      <point x="309" y="874"/>
      <point x="470" y="1048"/>
      <point x="681" y="1048" type="curve" smooth="yes"/>
      <point x="906" y="1048"/>
      <point x="998" y="856"/>
      <point x="998" y="631" type="curve"/>
    </contour>
  </outline>
</glyph>
<glyph name="za.base" format="2">
  <advance width="1243"/>
  <anchor x="992" y="-14" name="haa"/>
  <anchor x="299" y="1162" name="he.acute.top"/>
  <anchor x="855" y="124" name="hee"/>
  <anchor x="1048" y="37" name="hi"/>
  <anchor x="255" y="-11" name="ho"/>
  <anchor x="1108" y="681" name="hu"/>
  <anchor x="995" y="0" name="hwa"/>
  <anchor x="613" y="970" name="zha"/>
  <outline>
    <contour>
      <point x="232" y="0" type="line"/>
      <point x="286" y="0" type="line"/>
      <point x="286" y="611" type="line"/>
      <point x="962" y="611" type="line"/>
      <point x="962" y="0" type="line"/>
      <point x="1016" y="0" type="line"/>
      <point x="1016" y="1082" type="line"/>
      <point x="962" y="1082" type="line"/>
      <point x="962" y="665" type="line"/>
      <point x="286" y="665" type="line"/>
      <point x="286" y="1082" type="line"/>
      <point x="232" y="1082" type="line"/>
    </contour>
  </outline>
</glyph>
